<svg data-v-fde0c5aa="" xmlns="http://www.w3.org/2000/svg" viewBox="0 0 300 300" class="font"><!----><defs data-v-fde0c5aa=""><!----></defs><rect data-v-fde0c5aa="" fill="transparent" x="0" y="0" width="300px" height="300px" class="logo-background-square"></rect><defs data-v-fde0c5aa=""><linearGradient data-v-fde0c5aa="" gradientTransform="rotate(25)" id="7b2bfc4c-a2b5-4637-a1db-6f8adf2d855e" x1="0%" y1="0%" x2="100%" y2="0%"><stop data-v-fde0c5aa="" offset="0%" stop-color="#2e3034" stop-opacity="1"></stop><stop data-v-fde0c5aa="" offset="100%" stop-color="#0A5CFF" stop-opacity="1"></stop></linearGradient></defs><g data-v-fde0c5aa="" id="0493200f-b6e5-49d6-be4e-d59457b20781" fill="url(#7b2bfc4c-a2b5-4637-a1db-6f8adf2d855e)" transform="matrix(4.696338867908303,0,0,4.696338867908303,37.910129237371635,120.95549292980142)"><path d="M4.52 6.72L4.63 6.61L4.63 6.61Q4.61 6.34 4.54 6.03L4.54 6.03L4.54 6.03Q4.47 5.71 4.52 5.45L4.52 5.45L4.52 5.42L4.54 5.40L4.54 5.40Q4.54 5.38 4.55 5.36L4.55 5.36L4.55 5.36Q4.59 5.25 4.69 5.11L4.69 5.11L4.69 5.11Q4.79 4.97 4.91 4.84L4.91 4.84L4.91 4.84Q5.03 4.72 5.17 4.64L5.17 4.64L5.17 4.64Q5.31 4.56 5.45 4.59L5.45 4.59L5.45 4.59Q5.53 4.79 5.59 5.00L5.59 5.00L5.59 5.00Q5.64 5.21 5.68 5.43L5.68 5.43L5.68 5.43Q5.75 5.39 5.81 5.39L5.81 5.39L5.81 5.39Q5.88 5.39 5.91 5.46L5.91 5.46L5.92 5.45L5.92 5.45Q5.92 5.46 5.91 5.46L5.91 5.46L5.91 5.46Q5.91 5.46 5.91 5.47L5.91 5.47L5.92 5.49L5.92 5.49Q5.95 5.85 5.94 6.21L5.94 6.21L5.94 6.21Q5.92 6.57 5.92 6.93L5.92 6.93L5.92 6.93Q6.03 7.74 6.10 8.54L6.10 8.54L6.10 8.54Q6.16 9.34 6.05 10.15L6.05 10.15L6.05 10.16L6.05 10.18L6.05 10.18Q6.03 10.18 6.03 10.19L6.03 10.19L6.03 10.19Q5.99 10.29 5.88 10.45L5.88 10.45L5.88 10.45Q5.77 10.61 5.63 10.75L5.63 10.75L5.63 10.75Q5.49 10.89 5.35 10.96L5.35 10.96L5.35 10.96Q5.21 11.03 5.12 10.95L5.12 10.95L5.12 10.95Q5.10 10.79 5.09 10.65L5.09 10.65L5.09 10.65Q5.08 10.51 5.07 10.37L5.07 10.37L5.07 10.37Q5.04 10.37 5.03 10.38L5.03 10.38L5.03 10.38Q5.01 10.39 5.00 10.39L5.00 10.39L4.98 10.40L4.98 10.40Q4.84 10.37 4.79 10.36L4.79 10.36L4.79 10.36Q4.63 10.47 4.53 10.50L4.53 10.50L4.53 10.50Q4.42 10.53 4.45 10.35L4.45 10.35L4.45 10.33L4.45 10.33Q4.33 10.35 3.94 10.41L3.94 10.41L3.94 10.41Q3.56 10.47 3.09 10.53L3.09 10.53L3.09 10.53Q2.63 10.58 2.20 10.60L2.20 10.60L2.20 10.60Q1.76 10.61 1.57 10.54L1.57 10.54L1.57 10.54Q1.50 10.56 1.41 10.56L1.41 10.56L1.41 10.56Q1.33 10.57 1.26 10.57L1.26 10.57L1.26 10.57Q1.20 10.51 1.23 10.43L1.23 10.43L1.23 10.43Q1.25 10.40 1.25 10.37L1.25 10.37L1.25 10.37Q1.26 10.35 1.27 10.32L1.27 10.32L1.27 10.32Q1.06 10.26 0.94 10.08L0.94 10.08L0.94 10.08Q0.81 9.90 0.73 9.68L0.73 9.68L0.73 9.68Q0.64 9.46 0.61 9.23L0.61 9.23L0.61 9.23Q0.57 9.00 0.56 8.83L0.56 8.83L0.56 8.83Q0.48 8.06 0.56 7.28L0.56 7.28L0.56 7.28Q0.49 6.92 0.46 6.55L0.46 6.55L0.46 6.55Q0.43 6.19 0.46 5.80L0.46 5.80L0.46 5.78L0.46 5.78Q0.46 5.75 0.47 5.74L0.47 5.74L0.47 5.74Q0.48 5.73 0.48 5.70L0.48 5.70L0.48 5.70Q0.52 5.59 0.61 5.45L0.61 5.45L0.61 5.45Q0.70 5.31 0.82 5.18L0.82 5.18L0.82 5.18Q0.94 5.05 1.07 4.98L1.07 4.98L1.07 4.98Q1.20 4.90 1.34 4.91L1.34 4.91L1.34 4.91Q1.58 4.63 1.93 4.49L1.93 4.49L1.93 4.49Q2.00 4.47 2.05 4.46L2.05 4.46L2.05 4.46Q2.10 4.45 2.13 4.55L2.13 4.55L2.13 4.55Q2.14 4.68 2.11 4.82L2.11 4.82L2.11 4.82Q2.07 4.97 2.03 5.12L2.03 5.12L2.03 5.12Q2.20 4.98 2.32 4.96L2.32 4.96L2.32 4.96Q2.45 4.93 2.39 5.17L2.39 5.17L2.39 5.17Q2.27 5.52 2.23 5.94L2.23 5.94L2.23 5.94Q2.20 6.37 2.23 6.82L2.23 6.82L2.23 6.82Q2.25 7.28 2.32 7.72L2.32 7.72L2.32 7.72Q2.39 8.16 2.46 8.54L2.46 8.54L2.46 8.54Q2.46 8.54 2.49 8.63L2.49 8.63L2.49 8.63Q2.52 8.72 2.57 8.85L2.57 8.85L2.57 8.85Q2.62 8.97 2.67 9.12L2.67 9.12L2.67 9.12Q2.73 9.27 2.79 9.39L2.79 9.39L2.79 9.39Q3.23 9.34 3.72 9.35L3.72 9.35L3.72 9.35Q4.20 9.35 4.61 9.32L4.61 9.32L4.61 9.32Q4.68 9.02 4.73 8.71L4.73 8.71L4.73 8.71Q4.77 8.41 4.79 8.11L4.79 8.11L4.79 8.11Q4.76 7.88 4.75 7.67L4.75 7.67L4.75 7.67Q4.73 7.45 4.70 7.25L4.70 7.25L4.70 7.25Q4.68 7.13 4.63 6.99L4.63 6.99L4.63 6.99Q4.59 6.86 4.52 6.72L4.52 6.72ZM9.81 9.07L9.81 9.07L9.81 9.07Q10.14 9.14 10.46 9.13L10.46 9.13L10.46 9.13Q10.79 9.11 11.12 9.07L11.12 9.07L11.12 9.07Q11.83 8.90 12.50 8.51L12.50 8.51L12.50 8.51Q12.54 8.48 12.59 8.45L12.59 8.45L12.59 8.45Q12.64 8.41 12.70 8.39L12.70 8.39L12.70 8.39Q12.75 8.33 12.77 8.31L12.77 8.31L12.77 8.31Q12.78 8.29 12.80 8.27L12.80 8.27L12.80 8.27Q12.81 8.26 12.84 8.23L12.84 8.23L12.84 8.23Q12.87 8.20 12.92 8.15L12.92 8.15L12.92 8.15Q12.96 8.11 13.10 8.00L13.10 8.00L13.10 8.00Q13.23 7.90 13.36 7.83L13.36 7.83L13.41 7.77L13.44 7.80L13.44 7.80Q13.57 7.78 13.52 7.98L13.52 7.98L13.52 7.98Q13.36 8.44 13.01 8.81L13.01 8.81L13.01 8.81Q12.67 9.17 12.21 9.44L12.21 9.44L12.21 9.44Q11.90 9.70 11.55 9.96L11.55 9.96L11.55 9.96Q11.20 10.22 10.86 10.40L10.86 10.40L10.86 10.40Q10.51 10.58 10.20 10.68L10.20 10.68L10.20 10.68Q9.88 10.77 9.63 10.72L9.63 10.72L9.63 10.72Q9.23 10.64 8.88 10.46L8.88 10.46L8.88 10.46Q8.53 10.28 8.20 10.04L8.20 10.04L8.20 10.04Q7.50 9.51 7.12 9.01L7.12 9.01L7.12 9.01Q6.73 8.51 6.67 8.01L6.67 8.01L6.67 8.01Q6.61 7.50 6.87 6.96L6.87 6.96L6.87 6.96Q7.13 6.43 7.73 5.82L7.73 5.82L7.73 5.82Q8.15 5.25 8.75 4.88L8.75 4.88L8.75 4.88Q9.35 4.51 10.23 4.23L10.23 4.23L10.23 4.23Q10.42 4.17 10.65 4.14L10.65 4.14L10.65 4.14Q10.89 4.12 11.14 4.13L11.14 4.13L11.14 4.13Q11.35 4.07 11.62 4.06L11.62 4.06L11.62 4.06Q11.89 4.05 12.14 4.09L12.14 4.09L12.14 4.09Q12.21 3.98 12.35 3.81L12.35 3.81L12.35 3.81Q12.49 3.65 12.62 3.53L12.62 3.53L12.62 3.53Q12.75 3.40 12.87 3.36L12.87 3.36L12.87 3.36Q12.99 3.32 13.02 3.46L13.02 3.46L13.02 3.46Q13.05 3.72 13.03 3.99L13.03 3.99L13.03 3.99Q13.02 4.26 12.96 4.52L12.96 4.52L12.96 4.52Q12.99 4.59 13.02 4.65L13.02 4.65L13.02 4.65Q13.05 4.70 13.06 4.77L13.06 4.77L13.06 4.77Q12.99 5.04 12.80 5.24L12.80 5.24L12.80 5.24Q12.77 5.46 12.73 5.67L12.73 5.67L12.73 5.67Q12.68 5.88 12.59 6.09L12.59 6.09L12.50 6.22L12.50 6.24L12.50 6.24Q12.57 6.36 12.66 6.41L12.66 6.41L12.66 6.41Q12.74 6.47 12.82 6.55L12.82 6.55L12.82 6.55Q12.59 6.78 12.37 6.99L12.37 6.99L12.37 6.99Q12.15 7.20 11.91 7.42L11.91 7.42L11.91 7.42Q11.83 7.34 11.73 7.27L11.73 7.27L11.73 7.27Q11.62 7.21 11.59 7.10L11.59 7.10L11.59 7.10Q11.55 6.99 11.66 6.55L11.66 6.55L11.66 6.55Q11.65 6.41 11.67 6.23L11.67 6.23L11.67 6.23Q11.69 6.05 11.72 5.85L11.72 5.85L11.72 5.85Q11.69 5.77 11.67 5.68L11.67 5.68L11.67 5.68Q11.65 5.60 11.59 5.53L11.59 5.53L11.59 5.53Q11.56 5.50 11.54 5.49L11.54 5.49L11.54 5.49Q11.52 5.47 11.49 5.45L11.49 5.45L11.49 5.45Q11.33 5.38 11.17 5.30L11.17 5.30L11.17 5.30Q11.02 5.22 10.86 5.19L10.86 5.19L10.86 5.19Q10.60 5.14 10.25 5.14L10.25 5.14L10.25 5.14Q9.87 5.33 9.52 5.58L9.52 5.58L9.52 5.58Q9.17 5.82 8.88 6.10L8.88 6.10L8.88 6.10Q8.36 6.57 8.16 6.86L8.16 6.86L8.16 6.86Q7.95 7.15 8.06 7.48L8.06 7.48L8.06 7.48Q8.18 7.62 8.32 7.77L8.32 7.77L8.32 7.77Q8.46 7.92 8.64 8.13L8.64 8.13L8.64 8.13Q8.71 8.22 8.77 8.32L8.77 8.32L8.77 8.32Q8.83 8.41 8.92 8.53L8.92 8.53L8.92 8.53Q9.07 8.68 9.32 8.83L9.32 8.83L9.32 8.83Q9.44 8.92 9.56 8.97L9.56 8.97L9.56 8.97Q9.69 9.03 9.81 9.07ZM14.46 2.09L14.46 2.09L14.46 2.09Q14.45 2.02 14.43 1.97L14.43 1.97L14.43 1.97Q14.42 1.92 14.41 1.88L14.41 1.88L14.35 1.90L14.35 1.90Q14.36 1.88 14.37 1.83L14.37 1.83L14.37 1.83Q14.38 1.79 14.41 1.76L14.41 1.76L14.41 1.76Q14.45 1.65 14.55 1.50L14.55 1.50L14.55 1.50Q14.64 1.36 14.76 1.23L14.76 1.23L14.76 1.23Q14.88 1.11 15.02 1.03L15.02 1.03L15.02 1.03Q15.16 0.95 15.30 0.98L15.30 0.98L15.30 0.98Q15.33 1.04 15.34 1.08L15.34 1.08L15.34 1.08Q15.34 1.13 15.37 1.20L15.37 1.20L15.37 1.20Q15.53 1.04 15.69 0.93L15.69 0.93L15.69 0.93Q15.85 0.83 15.92 0.90L15.92 0.90L15.95 0.87L15.95 0.99L15.93 0.99L15.93 0.99Q15.90 1.32 15.86 1.60L15.86 1.60L15.86 1.60Q15.82 1.88 15.79 2.20L15.79 2.20L15.79 2.20Q15.76 2.52 15.79 2.84L15.79 2.84L15.79 2.84Q15.81 3.16 15.81 3.49L15.81 3.49L15.81 3.49Q15.79 3.85 15.78 4.20L15.78 4.20L15.78 4.20Q15.76 4.55 15.75 4.91L15.75 4.91L15.76 4.91L15.76 4.91Q15.85 5.12 15.90 5.35L15.90 5.35L15.90 5.35Q15.95 5.59 15.97 5.84L15.97 5.84L15.97 5.84Q16.35 5.59 16.77 5.42L16.77 5.42L16.77 5.42Q17.12 5.25 17.49 5.12L17.49 5.12L17.49 5.12Q17.85 5.00 18.23 4.96L18.23 4.96L18.23 4.96Q18.48 4.91 18.63 4.93L18.63 4.93L18.65 4.93L18.65 4.93Q18.66 4.93 18.67 4.93L18.67 4.93L18.67 4.93Q18.68 4.94 18.70 4.94L18.70 4.94L18.70 4.94Q18.72 5.01 18.70 5.06L18.70 5.06L18.70 5.06Q18.69 5.11 18.66 5.18L18.66 5.18L18.66 5.18Q18.77 5.15 18.92 5.13L18.92 5.13L18.92 5.13Q19.07 5.11 19.21 5.10L19.21 5.10L19.21 5.10Q19.42 4.96 19.47 5.08L19.47 5.08L19.54 5.08L19.54 5.08Q19.68 5.11 19.62 5.23L19.62 5.23L19.62 5.23Q19.56 5.35 19.53 5.42L19.53 5.42L19.53 5.42Q19.52 5.43 19.51 5.45L19.51 5.45L19.51 5.45Q19.50 5.46 19.49 5.47L19.49 5.47L19.49 5.47Q19.47 5.49 19.45 5.49L19.45 5.49L19.45 5.49Q19.40 6.12 19.47 6.73L19.47 6.73L19.47 6.73Q19.53 7.35 19.56 7.98L19.56 7.98L19.56 8.32L19.56 8.32Q19.57 8.36 19.57 8.40L19.57 8.40L19.57 8.40Q19.57 8.43 19.59 8.47L19.59 8.47L19.59 8.47Q19.63 8.76 19.70 9.13L19.70 9.13L19.70 9.13Q19.78 9.49 19.73 9.81L19.73 9.81L19.73 9.93L19.73 9.93Q19.71 10.01 19.59 10.18L19.59 10.18L19.59 10.18Q19.47 10.35 19.33 10.50L19.33 10.50L19.33 10.50Q19.18 10.65 19.03 10.73L19.03 10.73L19.03 10.73Q18.89 10.81 18.80 10.72L18.80 10.72L18.80 10.72Q18.70 10.54 18.68 10.32L18.68 10.32L18.68 10.32Q18.66 10.32 18.65 10.33L18.65 10.33L18.65 10.33Q18.65 10.14 18.56 9.93L18.56 9.93L18.56 9.93Q18.55 9.88 18.54 9.85L18.54 9.85L18.54 9.85Q18.54 9.81 18.52 9.77L18.52 9.77L18.52 9.77Q18.49 9.77 18.47 9.77L18.47 9.77L18.47 9.77Q18.44 9.76 18.42 9.73L18.42 9.73L18.42 9.51L18.42 9.51Q18.41 9.46 18.40 9.43L18.40 9.43L18.40 9.43Q18.40 9.39 18.38 9.35L18.38 9.35L18.38 9.35Q18.31 9.10 18.22 8.69L18.22 8.69L18.22 8.69Q18.13 8.27 18.06 7.83L18.06 7.83L18.06 7.83Q17.99 7.39 17.95 6.96L17.95 6.96L17.95 6.96Q17.92 6.54 17.93 6.26L17.93 6.26L17.93 6.24L17.93 6.24Q17.93 6.23 17.94 6.22L17.94 6.22L17.94 6.22Q17.95 6.20 17.95 6.19L17.95 6.19L17.95 6.19Q17.78 6.15 17.63 6.15L17.63 6.15L17.12 6.27L17.12 6.27Q16.84 6.41 16.56 6.59L16.56 6.59L16.56 6.59Q16.28 6.76 15.99 6.93L15.99 6.93L15.99 6.93Q15.97 7.28 15.96 7.62L15.96 7.62L15.96 7.62Q15.95 7.95 15.95 8.26L15.95 8.26L15.95 8.26Q15.96 8.34 15.97 8.42L15.97 8.42L15.97 8.42Q15.97 8.50 16.00 8.58L16.00 8.58L16.00 8.58Q15.99 8.55 15.99 8.53L15.99 8.53L15.99 8.53Q15.99 8.50 16.00 8.53L16.00 8.53L16.00 8.53Q16.09 8.85 16.15 9.26L16.15 9.26L16.15 9.26Q16.21 9.67 16.06 10.00L16.06 10.00L16.06 10.00Q15.93 10.22 15.71 10.46L15.71 10.46L15.71 10.46Q15.48 10.70 15.20 10.72L15.20 10.72L15.20 10.72Q15.11 10.68 15.06 10.49L15.06 10.49L15.06 10.49Q14.91 10.71 14.68 10.88L14.68 10.88L14.68 10.88Q14.45 11.06 14.34 10.95L14.34 10.95L14.34 10.95Q14.31 10.77 14.34 10.58L14.34 10.58L14.34 10.58Q14.36 10.39 14.39 10.21L14.39 10.21L14.39 10.21Q14.39 8.60 14.31 6.96L14.31 6.96L14.31 6.96Q14.27 6.41 14.27 5.81L14.27 5.81L14.27 5.81Q14.27 5.19 14.29 4.56L14.29 4.56L14.29 4.56Q14.31 3.92 14.36 3.29L14.36 3.29L14.36 3.29Q14.41 2.66 14.46 2.09ZM24.40 4.09L24.40 4.09L24.40 4.09Q24.49 4.09 24.72 4.12L24.72 4.12L24.72 4.12Q24.96 4.14 25.23 4.21L25.23 4.21L25.23 4.21Q25.51 4.28 25.74 4.41L25.74 4.41L25.74 4.41Q25.97 4.54 26.01 4.72L26.01 4.72L26.01 4.72Q26.15 4.87 26.25 5.08L26.25 5.08L26.25 5.08Q26.54 5.70 26.38 6.17L26.38 6.17L26.38 6.17Q26.45 6.19 26.51 6.20L26.51 6.20L26.51 6.20Q26.57 6.22 26.63 6.24L26.63 6.24L26.63 6.24Q26.66 6.37 26.59 6.50L26.59 6.50L26.59 6.50Q26.53 6.62 26.42 6.73L26.42 6.73L26.42 6.73Q26.32 6.85 26.19 6.94L26.19 6.94L26.19 6.94Q26.07 7.03 25.98 7.08L25.98 7.08L25.98 7.08Q25.75 7.22 25.41 7.25L25.41 7.25L25.41 7.25Q25.07 7.27 24.75 7.27L24.75 7.27L24.75 7.27Q24.16 7.34 23.61 7.46L23.61 7.46L23.61 7.46Q23.06 7.59 22.50 7.73L22.50 7.73L22.50 7.73Q22.23 7.80 21.97 7.88L21.97 7.88L21.97 7.88Q21.71 7.97 21.45 8.04L21.45 8.04L21.45 8.04Q21.70 8.69 22.25 9.13L22.25 9.13L22.25 9.13Q22.74 9.41 23.35 9.48L23.35 9.48L23.35 9.48Q23.97 9.55 24.54 9.51L24.54 9.51L25.00 9.38L25.00 9.38Q25.03 9.37 24.98 9.38L24.98 9.38L24.98 9.38Q24.93 9.39 24.86 9.41L24.86 9.41L24.86 9.41Q24.79 9.42 24.74 9.44L24.74 9.44L24.74 9.44Q24.70 9.45 24.74 9.44L24.74 9.44L24.74 9.44Q25.12 9.34 25.52 9.25L25.52 9.25L25.52 9.25Q25.91 9.17 26.29 9.03L26.29 9.03L26.29 9.03Q26.40 8.95 26.52 8.86L26.52 8.86L26.52 8.86Q26.64 8.76 26.80 8.71L26.80 8.71L26.80 8.71Q26.84 8.69 26.89 8.69L26.89 8.69L26.89 8.69Q26.94 8.68 26.98 8.69L26.98 8.69L26.98 8.69Q27.01 8.81 27.01 8.86L27.01 8.86L27.01 8.86Q26.94 9.11 26.74 9.30L26.74 9.30L26.74 9.30Q26.54 9.49 26.35 9.63L26.35 9.63L26.35 9.63Q26.08 9.77 25.80 9.88L25.80 9.88L25.80 9.88Q25.79 9.90 25.77 9.90L25.77 9.90L25.77 9.90Q25.45 10.09 25.07 10.20L25.07 10.20L25.07 10.20Q24.70 10.30 24.33 10.36L24.33 10.36L24.33 10.36Q24.00 10.42 23.60 10.44L23.60 10.44L23.60 10.44Q22.86 10.57 22.29 10.48L22.29 10.48L22.29 10.48Q21.73 10.39 21.31 10.01L21.31 10.01L21.31 10.01Q21.03 9.84 20.82 9.60L20.82 9.60L20.82 9.60Q20.62 9.35 20.52 9.02L20.52 9.02L20.52 9.02Q20.48 8.92 20.48 8.83L20.48 8.83L20.48 8.83Q20.48 8.74 20.50 8.64L20.50 8.64L20.50 8.64Q20.40 8.37 20.31 8.02L20.31 8.02L20.31 8.02Q20.24 7.77 20.32 7.50L20.32 7.50L20.32 7.50Q20.40 7.24 20.44 6.96L20.44 6.96L20.44 6.96Q20.48 6.66 20.66 6.37L20.66 6.37L20.66 6.37Q20.83 6.08 21.03 5.82L21.03 5.82L21.03 5.82Q21.38 5.36 21.74 5.05L21.74 5.05L21.74 5.05Q22.11 4.75 22.50 4.55L22.50 4.55L22.50 4.55Q22.90 4.35 23.37 4.25L23.37 4.25L23.37 4.25Q23.84 4.14 24.40 4.09ZM21.41 6.82L21.41 6.82L21.41 6.82Q21.41 6.92 21.42 7L21.42 7L21.42 7Q21.43 7.08 21.46 7.18L21.46 7.18L21.46 7.18Q21.70 7.07 21.95 6.99L21.95 6.99L21.95 6.99Q22.20 6.90 22.47 6.83L22.47 6.83L22.47 6.83Q23.00 6.66 23.54 6.54L23.54 6.54L23.54 6.54Q24.08 6.43 24.44 6.33L24.44 6.33L24.44 6.33Q24.68 6.26 24.92 6.20L24.92 6.20L24.92 6.20Q25.16 6.15 25.40 6.10L25.40 6.10L25.40 6.10Q25.38 6.06 25.37 6.03L25.37 6.03L25.37 6.03Q25.35 5.99 25.34 5.95L25.34 5.95L25.34 5.95Q25.17 5.59 24.86 5.40L24.86 5.40L24.86 5.40Q24.56 5.21 24.15 5.18L24.15 5.18L24.15 5.18Q23.73 5.14 23.32 5.26L23.32 5.26L23.32 5.26Q22.90 5.38 22.54 5.61L22.54 5.61L22.54 5.61Q22.18 5.84 21.88 6.15L21.88 6.15L21.88 6.15Q21.59 6.45 21.41 6.82ZM21.59 5.82L21.59 5.82L21.59 5.82Q21.77 5.66 21.95 5.51L21.95 5.51L21.95 5.51Q22.13 5.36 22.33 5.22L22.33 5.22L22.33 5.22Q21.88 5.40 21.66 5.73L21.66 5.73L21.66 5.73Q21.63 5.75 21.62 5.77L21.62 5.77L21.62 5.77Q21.62 5.80 21.59 5.82ZM31.15 5.71L31.15 5.71L31.15 5.71Q30.73 5.71 30.28 5.94L30.28 5.94L30.28 5.94Q29.83 6.17 29.46 6.40L29.46 6.40L29.46 6.40Q29.46 7.18 29.53 7.95L29.53 7.95L29.53 7.95Q29.61 8.71 29.86 9.45L29.86 9.45L29.89 9.42L29.89 9.42Q29.89 9.49 29.90 9.53L29.90 9.53L29.90 9.53Q29.90 9.56 29.92 9.60L29.92 9.60L29.92 9.60Q29.95 9.63 29.95 9.67L29.95 9.67L29.95 9.67Q29.96 9.69 29.96 9.70L29.96 9.70L29.96 9.70Q29.96 9.70 29.97 9.72L29.97 9.72L29.97 9.72Q30.00 9.81 29.90 9.99L29.90 9.99L29.90 9.99Q29.79 10.16 29.64 10.31L29.64 10.31L29.64 10.31Q29.50 10.46 29.34 10.55L29.34 10.55L29.34 10.55Q29.18 10.64 29.09 10.60L29.09 10.60L29.08 10.61L29.08 10.61Q29.08 10.60 29.06 10.60L29.06 10.60L29.06 10.60Q29.06 10.60 29.06 10.58L29.06 10.58L29.06 10.58Q28.92 10.29 28.81 9.93L28.81 9.93L28.81 9.93Q28.74 10.02 28.64 10.14L28.64 10.14L28.64 10.14Q28.55 10.25 28.45 10.32L28.45 10.32L28.45 10.32Q28.35 10.40 28.26 10.44L28.26 10.44L28.26 10.44Q28.17 10.47 28.10 10.44L28.10 10.44L28.07 10.47L28.07 10.47Q28.06 10.43 28.06 10.33L28.06 10.33L28.06 10.33Q27.96 9.70 27.89 8.99L27.89 8.99L27.89 8.99Q27.82 8.29 27.80 7.56L27.80 7.56L27.80 7.56Q27.79 6.83 27.83 6.12L27.83 6.12L27.83 6.12Q27.87 5.40 27.97 4.77L27.97 4.77L27.97 4.66L27.97 4.66Q27.97 4.66 28 4.65L28 4.65L28 4.65Q28.04 4.56 28.18 4.39L28.18 4.39L28.18 4.39Q28.32 4.21 28.47 4.08L28.47 4.08L28.47 4.08Q28.62 3.95 28.74 3.89L28.74 3.89L28.74 3.89Q28.87 3.84 28.90 3.98L28.90 3.98L28.90 3.98Q28.90 4.21 28.89 4.45L28.89 4.45L28.89 4.45Q28.88 4.68 28.87 4.91L28.87 4.91L28.87 4.91Q29.01 4.76 29.18 4.64L29.18 4.64L29.18 4.64Q29.34 4.52 29.53 4.55L29.53 4.55L29.53 4.55Q29.58 4.80 29.55 5.09L29.55 5.09L29.55 5.09Q29.51 5.38 29.48 5.66L29.48 5.66L29.48 5.66Q29.76 5.40 30.08 5.17L30.08 5.17L30.08 5.17Q30.39 4.94 30.74 4.77L30.74 4.77L30.74 4.77Q31.09 4.59 31.46 4.49L31.46 4.49L31.46 4.49Q31.82 4.40 32.19 4.41L32.19 4.41L32.19 4.41Q32.30 4.41 32.43 4.42L32.43 4.42L32.43 4.42Q32.56 4.42 32.68 4.49L32.68 4.49L32.68 4.49Q32.96 4.70 33.06 5.05L33.06 5.05L33.06 5.05Q33.17 5.39 33.21 5.71L33.21 5.71L33.21 5.71Q33.28 6.17 33.32 6.64L33.32 6.64L33.32 6.64Q33.36 7.11 33.38 7.57L33.38 7.57L33.38 7.57Q33.38 7.78 33.35 8.03L33.35 8.03L33.35 8.03Q33.32 8.27 33.35 8.47L33.35 8.47L33.35 8.47Q33.38 8.74 33.44 9.02L33.44 9.02L33.44 9.02Q33.50 9.30 33.46 9.56L33.46 9.56L33.46 9.56Q33.32 9.67 33.19 9.77L33.19 9.77L33.19 9.77Q33.07 9.86 32.94 9.97L32.94 9.97L32.94 9.97Q32.86 10.08 32.75 10.19L32.75 10.19L32.75 10.19Q32.65 10.30 32.55 10.37L32.55 10.37L32.55 10.37Q32.45 10.44 32.36 10.46L32.36 10.46L32.36 10.46Q32.27 10.49 32.21 10.43L32.21 10.43L32.21 10.43Q32.20 10.40 32.20 10.33L32.20 10.33L32.21 10.32L32.21 10.32Q32.21 10.25 32.22 10.19L32.22 10.19L32.22 10.19Q32.23 10.14 32.24 10.07L32.24 10.07L32.24 10.07Q32.13 10.18 32.01 10.22L32.01 10.22L32.01 10.22Q31.89 10.26 31.82 10.18L31.82 10.18L31.82 10.18Q31.81 10.16 31.81 10.12L31.81 10.12L31.84 10.09L31.84 10.09Q31.78 10.11 31.79 10.05L31.79 10.05L31.79 10.05Q31.79 10.00 31.83 9.92L31.83 9.92L31.83 9.92Q31.86 9.84 31.91 9.76L31.91 9.76L31.91 9.76Q31.95 9.67 31.96 9.62L31.96 9.62L31.96 9.62Q32.00 9.42 32.07 9.21L32.07 9.21L32.07 9.21Q32.13 9.00 32.17 8.81L32.17 8.81L32.17 8.81Q32.27 8.27 32.18 7.70L32.18 7.70L32.18 7.70Q32.09 7.13 31.89 6.62L31.89 6.62L31.89 6.62Q31.74 6.26 31.56 6.04L31.56 6.04L31.56 6.04Q31.37 5.82 31.15 5.71ZM37.93 5.71L37.93 5.71L37.93 5.71Q37.51 5.71 37.06 5.94L37.06 5.94L37.06 5.94Q36.61 6.17 36.23 6.40L36.23 6.40L36.23 6.40Q36.23 7.18 36.31 7.95L36.31 7.95L36.31 7.95Q36.39 8.71 36.64 9.45L36.64 9.45L36.67 9.42L36.67 9.42Q36.67 9.49 36.67 9.53L36.67 9.53L36.67 9.53Q36.68 9.56 36.69 9.60L36.69 9.60L36.69 9.60Q36.72 9.63 36.72 9.67L36.72 9.67L36.72 9.67Q36.74 9.69 36.74 9.70L36.74 9.70L36.74 9.70Q36.74 9.70 36.75 9.72L36.75 9.72L36.75 9.72Q36.78 9.81 36.67 9.99L36.67 9.99L36.67 9.99Q36.57 10.16 36.42 10.31L36.42 10.31L36.42 10.31Q36.27 10.46 36.11 10.55L36.11 10.55L36.11 10.55Q35.95 10.64 35.87 10.60L35.87 10.60L35.85 10.61L35.85 10.61Q35.85 10.60 35.84 10.60L35.84 10.60L35.84 10.60Q35.84 10.60 35.84 10.58L35.84 10.58L35.84 10.58Q35.70 10.29 35.59 9.93L35.59 9.93L35.59 9.93Q35.52 10.02 35.42 10.14L35.42 10.14L35.42 10.14Q35.32 10.25 35.22 10.32L35.22 10.32L35.22 10.32Q35.13 10.40 35.04 10.44L35.04 10.44L35.04 10.44Q34.94 10.47 34.87 10.44L34.87 10.44L34.85 10.47L34.85 10.47Q34.83 10.43 34.83 10.33L34.83 10.33L34.83 10.33Q34.73 9.70 34.66 8.99L34.66 8.99L34.66 8.99Q34.59 8.29 34.58 7.56L34.58 7.56L34.58 7.56Q34.57 6.83 34.61 6.12L34.61 6.12L34.61 6.12Q34.65 5.40 34.75 4.77L34.75 4.77L34.75 4.66L34.75 4.66Q34.75 4.66 34.78 4.65L34.78 4.65L34.78 4.65Q34.82 4.56 34.96 4.39L34.96 4.39L34.96 4.39Q35.10 4.21 35.25 4.08L35.25 4.08L35.25 4.08Q35.39 3.95 35.52 3.89L35.52 3.89L35.52 3.89Q35.64 3.84 35.67 3.98L35.67 3.98L35.67 3.98Q35.67 4.21 35.67 4.45L35.67 4.45L35.67 4.45Q35.66 4.68 35.64 4.91L35.64 4.91L35.64 4.91Q35.78 4.76 35.95 4.64L35.95 4.64L35.95 4.64Q36.12 4.52 36.30 4.55L36.30 4.55L36.30 4.55Q36.36 4.80 36.32 5.09L36.32 5.09L36.32 5.09Q36.29 5.38 36.26 5.66L36.26 5.66L36.26 5.66Q36.54 5.40 36.86 5.17L36.86 5.17L36.86 5.17Q37.17 4.94 37.52 4.77L37.52 4.77L37.52 4.77Q37.87 4.59 38.23 4.49L38.23 4.49L38.23 4.49Q38.60 4.40 38.96 4.41L38.96 4.41L38.96 4.41Q39.07 4.41 39.21 4.42L39.21 4.42L39.21 4.42Q39.34 4.42 39.45 4.49L39.45 4.49L39.45 4.49Q39.73 4.70 39.84 5.05L39.84 5.05L39.84 5.05Q39.94 5.39 39.98 5.71L39.98 5.71L39.98 5.71Q40.05 6.17 40.10 6.64L40.10 6.64L40.10 6.64Q40.14 7.11 40.15 7.57L40.15 7.57L40.15 7.57Q40.15 7.78 40.12 8.03L40.12 8.03L40.12 8.03Q40.10 8.27 40.12 8.47L40.12 8.47L40.12 8.47Q40.15 8.74 40.22 9.02L40.22 9.02L40.22 9.02Q40.28 9.30 40.24 9.56L40.24 9.56L40.24 9.56Q40.10 9.67 39.97 9.77L39.97 9.77L39.97 9.77Q39.84 9.86 39.72 9.97L39.72 9.97L39.72 9.97Q39.63 10.08 39.53 10.19L39.53 10.19L39.53 10.19Q39.42 10.30 39.33 10.37L39.33 10.37L39.33 10.37Q39.23 10.44 39.14 10.46L39.14 10.46L39.14 10.46Q39.05 10.49 38.99 10.43L38.99 10.43L38.99 10.43Q38.98 10.40 38.98 10.33L38.98 10.33L38.99 10.32L38.99 10.32Q38.99 10.25 39.00 10.19L39.00 10.19L39.00 10.19Q39.00 10.14 39.02 10.07L39.02 10.07L39.02 10.07Q38.91 10.18 38.79 10.22L38.79 10.22L38.79 10.22Q38.67 10.26 38.60 10.18L38.60 10.18L38.60 10.18Q38.58 10.16 38.58 10.12L38.58 10.12L38.61 10.09L38.61 10.09Q38.56 10.11 38.56 10.05L38.56 10.05L38.56 10.05Q38.57 10.00 38.61 9.92L38.61 9.92L38.61 9.92Q38.64 9.84 38.68 9.76L38.68 9.76L38.68 9.76Q38.72 9.67 38.74 9.62L38.74 9.62L38.74 9.62Q38.78 9.42 38.84 9.21L38.84 9.21L38.84 9.21Q38.91 9.00 38.95 8.81L38.95 8.81L38.95 8.81Q39.05 8.27 38.96 7.70L38.96 7.70L38.96 7.70Q38.86 7.13 38.67 6.62L38.67 6.62L38.67 6.62Q38.51 6.26 38.33 6.04L38.33 6.04L38.33 6.04Q38.15 5.82 37.93 5.71ZM41.62 6.82L41.62 6.82L41.62 6.82Q41.82 6.48 42.08 6.17L42.08 6.17L42.08 6.17Q42.34 5.87 42.64 5.62L42.64 5.62L42.64 5.62Q42.94 5.38 43.27 5.21L43.27 5.21L43.27 5.21Q43.61 5.05 43.95 5.00L43.95 5.00L43.95 5.00Q44.34 4.73 44.78 4.55L44.78 4.55L44.78 4.55Q45.22 4.37 45.53 4.52L45.53 4.52L45.53 4.52Q45.92 4.75 46.14 5.05L46.14 5.05L46.14 5.05Q46.30 5.10 46.42 5.18L46.42 5.18L46.42 5.18Q46.47 5.22 46.51 5.26L46.51 5.26L46.51 5.26Q46.55 5.31 46.59 5.36L46.59 5.36L46.59 5.36Q46.75 5.22 46.87 5.17L46.87 5.17L46.87 5.17Q47.00 5.11 47.03 5.25L47.03 5.25L47.03 5.25Q47.08 5.66 47.10 6.05L47.10 6.05L47.10 6.05Q47.11 6.45 47.10 6.86L47.10 6.86L47.10 6.86Q47.11 6.92 47.12 6.96L47.12 6.96L47.12 6.96Q47.12 7 47.12 7.04L47.12 7.04L47.12 7.04Q47.12 7.31 47.16 7.60L47.16 7.60L47.16 7.60Q47.19 7.90 47.07 8.12L47.07 8.12L47.07 8.12Q47.07 8.19 47.06 8.27L47.06 8.27L47.06 8.27Q47.05 8.34 47.05 8.41L47.05 8.41L47.05 8.41Q47.12 8.95 47.14 9.39L47.14 9.39L47.14 9.39Q47.17 9.53 47.19 9.67L47.19 9.67L47.19 9.67Q47.21 9.80 47.22 9.93L47.22 9.93L47.22 9.93Q47.24 10.01 47.29 10.08L47.29 10.08L47.24 10.14L47.24 10.14Q47.24 10.39 47.18 10.62L47.18 10.62L47.18 10.62Q47.12 10.85 46.96 11.06L46.96 11.06L46.96 11.06Q46.91 11.10 46.82 11.19L46.82 11.19L46.82 11.19Q46.73 11.28 46.63 11.37L46.63 11.37L46.63 11.37Q46.52 11.45 46.42 11.49L46.42 11.49L46.42 11.49Q46.33 11.52 46.26 11.45L46.26 11.45L46.26 11.45Q46.24 11.44 46.24 11.42L46.24 11.42L46.24 11.42Q46.24 11.42 46.23 11.41L46.23 11.41L46.23 11.41Q46.21 11.41 46.20 11.42L46.20 11.42L46.16 11.42L46.16 11.42Q46.06 11.42 46.03 11.40L46.03 11.40L46.03 11.40Q45.96 11.19 45.96 10.91L45.96 10.91L45.96 10.91Q45.96 10.64 45.93 10.44L45.93 10.44L45.93 10.44Q45.91 10.23 45.88 10.02L45.88 10.02L45.88 10.02Q45.86 9.81 45.84 9.59L45.84 9.59L45.84 9.59Q45.47 9.83 45.04 10.00L45.04 10.00L45.04 10.00Q44.60 10.16 44.11 10.30L44.11 10.30L44.11 10.30Q44.03 10.33 43.95 10.35L43.95 10.35L43.95 10.35Q43.88 10.37 43.79 10.40L43.79 10.40L43.79 10.40Q43.58 10.51 43.37 10.61L43.37 10.61L43.37 10.61Q43.15 10.70 42.93 10.74L42.93 10.74L42.93 10.74Q42.71 10.78 42.50 10.75L42.50 10.75L42.50 10.75Q42.29 10.72 42.08 10.57L42.08 10.57L42.08 10.57Q41.71 10.30 41.40 9.93L41.40 9.93L41.40 9.93Q41.09 9.56 40.94 9.13L40.94 9.13L40.94 9.13Q40.88 8.99 40.89 8.82L40.89 8.82L40.89 8.82Q40.91 8.65 40.96 8.47L40.96 8.47L40.96 8.47Q40.88 8.13 40.94 7.92L40.94 7.92L40.94 7.92Q41.02 7.62 41.20 7.34L41.20 7.34L41.20 7.34Q41.38 7.07 41.62 6.82ZM43.15 9.21L43.15 9.21L43.15 9.21Q43.32 9.24 43.64 9.21L43.64 9.21L43.64 9.21Q43.96 9.17 44.34 9.07L44.34 9.07L44.34 9.07Q44.72 8.97 45.09 8.82L45.09 8.82L45.09 8.82Q45.47 8.67 45.74 8.47L45.74 8.47L45.74 8.47Q45.71 8.15 45.69 7.81L45.69 7.81L45.69 7.81Q45.67 7.48 45.64 7.14L45.64 7.14L45.64 7.14Q45.63 7.03 45.63 6.92L45.63 6.92L45.63 6.92Q45.63 6.79 45.61 6.68L45.61 6.68L45.56 6.72L45.56 6.72Q45.54 6.65 45.54 6.57L45.54 6.57L45.54 6.57Q45.54 6.48 45.54 6.41L45.54 6.41L45.54 6.41Q45.51 6.34 45.48 6.28L45.48 6.28L45.48 6.28Q45.44 6.22 45.42 6.15L45.42 6.15L45.29 6.26L45.29 6.26Q45.25 6.19 45.25 6.10L45.25 6.10L45.25 6.10Q45.25 6.01 45.22 5.94L45.22 5.94L45.22 5.94Q44.97 5.85 44.74 5.80L44.74 5.80L44.74 5.80Q44.52 5.75 44.31 5.74L44.31 5.74L44.31 5.74Q44.11 5.74 43.92 5.77L43.92 5.77L43.92 5.77Q43.74 5.80 43.54 5.84L43.54 5.84L43.54 5.84Q42.98 6.06 42.43 6.82L42.43 6.82L42.43 6.82Q42.24 7.06 42.06 7.39L42.06 7.39L42.06 7.39Q42.03 7.81 42.14 8.22L42.14 8.22L42.14 8.22Q42.22 8.34 42.33 8.51L42.33 8.51L42.33 8.51Q42.43 8.68 42.56 8.83L42.56 8.83L42.56 8.83Q42.69 8.97 42.83 9.09L42.83 9.09L42.83 9.09Q42.98 9.20 43.15 9.21Z"></path></g><!----><!----></svg>